<svg width="3475" height="892" viewBox="0 0 3475 892" fill="none" xmlns="http://www.w3.org/2000/svg">
<path fill-rule="evenodd" clip-rule="evenodd" d="M314.416 481.174H187.053L254.714 262.908L314.416 481.174ZM127.357 701.804L167.151 568.792H330.334L370.127 701.804H505.449L362.169 196.996C354.21 163.842 338.292 153.185 302.472 153.185H103.475V198.573H119.398C143.275 198.573 155.218 206.076 155.218 224.231C155.218 235.674 155.218 243.177 143.275 270.411L0 701.804" fill="#C4C4C4"/>
<path d="M676.585 701.809V193.44C676.585 167.003 660.661 153.185 632.8 153.185H509.428V198.573H517.387C541.269 198.573 553.207 208.445 553.207 229.754V701.804L676.585 701.809ZM899.458 701.809V193.44C899.458 167.003 883.541 153.185 855.673 153.185H732.302V198.573H740.26C764.142 198.573 776.08 208.445 776.08 229.754V701.804" fill="#C4C4C4"/>
<path fill-rule="evenodd" clip-rule="evenodd" d="M1126.31 201.734C1126.31 165.419 1098.46 144.11 1054.68 144.11C1006.91 144.11 983.037 165.419 983.037 201.734C983.037 238.834 1006.91 260.539 1054.68 260.539C1098.46 260.539 1126.31 238.828 1126.31 201.734ZM1122.33 701.803V331.585C1122.33 305.928 1106.41 290.934 1082.54 290.934H959.155V335.531H967.119C990.995 335.531 998.954 345.397 998.954 367.894V701.803H1122.33ZM1416.85 502.489V584.582C1392.96 608.261 1365.11 621.683 1341.23 621.683C1317.35 621.683 1305.41 610.234 1305.41 579.449C1305.41 545.509 1313.37 532.482 1341.23 521.825C1361.12 513.536 1381.03 508.408 1416.85 502.489V502.489ZM1241.73 404.203L1253.67 399.465C1285.51 386.834 1305.41 382.102 1329.29 377.754C1341.23 376.182 1357.15 374.599 1365.11 374.599C1404.9 374.599 1416.85 387.626 1416.85 423.934V434.202C1361.13 443.282 1345.21 446.437 1313.37 453.142C1297.06 457.154 1281.08 462.434 1265.61 468.933C1213.87 489.457 1189.99 528.926 1189.99 590.892C1189.99 668.643 1221.83 705.744 1293.47 705.744C1321.33 705.744 1349.18 699.428 1369.09 686.798C1388.98 677.718 1396.95 672.985 1420.82 651.28V663.911C1420.82 689.562 1432.76 701.803 1456.64 701.803H1576.04V659.569H1572.06C1548.18 659.569 1536.24 648.911 1536.24 627.597V425.913C1536.24 320.922 1500.42 285.404 1396.95 285.404C1361.13 285.404 1329.29 289.351 1297.45 296.848C1265.61 304.345 1249.69 309.874 1213.87 328.424L1241.73 404.203ZM1763.1 701.809V423.149C1790.96 397.491 1810.85 387.626 1838.72 387.626C1866.57 387.626 1874.54 399.465 1874.54 441.303V701.797H1997.91V421.577C1997.91 363.953 1989.95 339.082 1974.03 317.377C1954.14 296.062 1930.25 286.196 1894.43 286.196C1846.67 286.196 1810.85 303.565 1755.14 351.323V329.216C1755.14 303.565 1743.2 290.934 1719.32 290.934H1599.92V335.531H1603.9C1627.78 335.531 1639.72 345.397 1639.72 367.894V701.803" fill="#C4C4C4"/>
<path d="M2380.04 623.216H2196.96L2372.08 375.35V290.886H2109.4C2077.56 290.886 2065.62 303.517 2065.62 333.908V408.505H2109.4V400.216C2109.4 377.718 2121.34 368.641 2145.22 368.641H2240.74L2061.65 616.505V701.759H2380.04" fill="#C4C4C4"/>
<path fill-rule="evenodd" clip-rule="evenodd" d="M3084.48 679.262V214.316C3084.48 176.821 3068.56 164.585 3032.74 164.585H2925.28V215.897H2937.22C2957.12 215.897 2965.08 223.394 2965.08 246.286V679.262H3084.48ZM3148.15 679.262H3263.57V328.382C3263.57 292.86 3247.66 278.651 3211.84 278.651H3148.15V679.262ZM2901.4 679.262V278.651H2837.72C2801.9 278.651 2785.98 292.86 2785.98 328.382V679.262H2901.4ZM3398.89 445.606C3398.89 663.08 3239.69 821.744 3024.78 821.744C2809.86 821.744 2650.67 663.08 2650.67 445.606C2650.67 228.132 2809.86 69.4659 3024.78 69.4659C3239.69 69.4659 3398.89 228.132 3398.89 445.606ZM3474.51 445.606C3474.51 191.031 3283.47 0.000149147 3024.78 0.000149147C2770.06 0.000149147 2575.05 191.031 2575.05 445.606C2575.05 700.97 2770.06 892 3024.78 892C3283.47 892 3474.51 700.97 3474.51 445.606Z" fill="#C4C4C4"/>
</svg>
