<svg width="3946" height="836" viewBox="0 0 3946 836" fill="none" xmlns="http://www.w3.org/2000/svg">
<path d="M3296.04 347.804C3216.84 300.221 3151.12 296.621 3120.37 296.621H3013.41L3007.7 285.038H3133.43C3142.14 285.038 3246.37 283.316 3307.74 302.255C3384.49 325.89 3437.56 372.221 3447.9 380.048C3458.24 387.717 3598.26 503.075 3598.26 503.075C3598.26 503.075 3574.72 530.78 3551.72 530.78C3529.95 530.78 3506.41 511.527 3506.41 511.527C3506.41 511.527 3431.43 449.387 3420 440.152C3408.57 430.918 3349.38 380.204 3295.9 347.96L3296.04 347.804Z" fill="#C4C4C4"/>
<path d="M3290.33 438.744C3343.26 479.127 3374.42 508.71 3384.63 517.162C3394.69 525.615 3441.78 564.276 3441.78 564.276C3441.78 564.276 3463.41 583.685 3489.95 583.685C3510.09 583.685 3534.85 556.763 3534.85 556.763C3534.85 556.763 3422.45 465.51 3412.25 457.37C3402.04 449.075 3365.98 416.361 3298.76 396.013C3242.56 378.952 3162.69 379.422 3157.38 379.422H3055.05L3061.04 391.317C3061.04 391.317 3138.19 391.474 3144.04 391.474C3156.43 391.474 3234.53 395.857 3290.33 438.431V438.744Z" fill="#C4C4C4"/>
<path d="M3307.61 252.48C3375.78 294.585 3443.27 352.812 3455.79 363.299C3468.45 373.786 3570.91 458.152 3570.91 458.152C3570.91 458.152 3594.86 476.778 3616.77 476.778C3638.13 476.778 3662.35 449.543 3662.35 449.543C3662.35 449.543 3498.79 314.15 3484.1 302.255C3469.4 290.359 3410.48 234.793 3315.91 208.967C3241.88 187.367 3118.33 189.871 3109.75 189.871H2960.07L2966.06 201.767H3096.69C3123.77 201.767 3228.14 203.332 3307.47 252.48H3307.61Z" fill="#C4C4C4"/>
<path d="M3900.35 250.602C3880.21 246.533 3853.68 244.655 3853.68 244.655L3817.48 256.55L3796.8 236.672C3796.8 236.672 3839.93 240.585 3851.91 242.62C3862.25 242.62 3858.85 236.672 3853.54 224.62C3848.37 212.724 3836.39 212.724 3836.39 212.724H3727.67C3727.67 212.724 3708.21 212.88 3685.9 206.932C3663.44 200.985 3654.6 181.576 3654.6 181.576C3645.89 204.585 3680.45 231.35 3680.45 231.35L3788.09 320.099C3801.97 330.116 3813.94 322.134 3813.94 322.134C3813.94 322.134 3841.57 306.168 3857.08 302.255C3870.96 298.342 3913.96 296.307 3919.13 298.342C3931.24 300.377 3944.98 314.307 3944.98 314.307C3951.92 258.585 3920.76 254.985 3900.21 250.602H3900.35Z" fill="#C4C4C4"/>
<path d="M3328.83 66.6874C3403.81 104.566 3511.04 196.758 3526.69 209.906C3542.47 223.054 3696.92 350.308 3696.92 350.308C3696.92 350.308 3721.14 370.186 3743.59 370.186C3766.04 370.186 3788.22 344.203 3788.22 344.203C3788.22 344.203 3569.96 163.732 3554.17 150.74C3538.39 137.749 3466 67.6265 3331.42 26.7739C3239.3 -1.24376 3080.91 0.00843024 3062.53 0.00843024H2864.95L2871.08 12.0607H3052.19C3097.91 12.0607 3229.77 16.4434 3328.97 66.6874H3328.83Z" fill="#C4C4C4"/>
<path d="M3317.4 159.349C3236.44 112.705 3136.56 106.914 3078.46 106.914H2918.57L2912.58 95.0181H3086.35C3105.13 95.0181 3236.71 93.4529 3323.8 116.149C3424.22 142.445 3510.63 218.202 3519.61 225.402C3528.19 232.289 3726.45 395.856 3726.45 395.856C3726.45 395.856 3703.86 422.622 3679.5 422.622C3657.18 422.622 3632.96 402.743 3632.96 402.743C3632.96 402.743 3503.96 296.307 3491.44 286.133C3479.06 275.959 3392.79 202.55 3317.4 159.193V159.349Z" fill="#C4C4C4"/>
<path d="M415.466 687.928C415.466 687.928 403.355 684.798 388.659 684.798C356.001 684.798 331.78 701.389 325.112 726.433C323.615 731.129 323.207 741.616 323.207 746.938C323.207 778.712 342.53 796.556 366.207 796.556C370.697 796.556 378.181 795.303 384.577 792.486C401.586 785.286 415.466 772.138 415.466 752.103V687.928ZM437.918 830.052C435.741 830.052 426.216 830.678 422.27 825.512C418.46 821.443 418.46 815.338 418.46 810.33V794.364C404.172 818.625 380.086 835.06 343.89 834.121C287.011 832.243 274.492 780.903 274.492 752.572C274.492 742.555 275.309 723.459 288.236 703.111C308.375 670.554 350.15 659.911 387.435 659.911C403.355 659.911 415.466 662.572 415.466 662.572V633.928C415.466 623.754 415.466 606.38 406.621 594.171C399.001 583.997 384.985 576.327 360.083 576.327C321.302 576.327 295.856 601.527 295.856 601.527L300.483 567.718C300.483 567.718 326.745 547.214 368.928 547.214C404.172 547.214 428.529 558.327 442.817 574.918C459.282 594.64 463.364 612.797 463.364 649.111V830.052H437.918Z" fill="#C4C4C4"/>
<path d="M594.677 585.093C553.855 594.015 549.364 631.111 549.364 657.25V830.052H501.466V583.058C501.466 559.267 487.858 554.258 487.858 554.258H535.212C545.69 554.258 549.364 560.989 549.364 568.502V583.528C550.861 578.519 568.007 552.223 599.712 550.971C610.054 550.501 621.892 551.597 628.288 555.98L634.547 590.728C627.471 586.189 614.136 580.711 594.541 584.937L594.677 585.093Z" fill="#C4C4C4"/>
<path d="M824.508 830.052C822.875 830.052 812.942 830.678 808.451 825.513C804.913 821.443 804.913 813.93 804.913 810.33V794.364C791.986 818.625 768.717 833.965 736.74 833.965C711.702 833.965 694.693 827.391 679.86 808.921C664.212 788.886 660.266 763.999 660.266 730.346V578.988C660.266 559.423 645.569 554.258 645.978 554.414H690.61C701.632 554.414 708.3 560.832 708.3 570.379V736.607C708.3 785.756 720.955 799.686 750.892 799.686C775.521 799.686 802.328 780.59 802.328 751.32V554.571H849.818V830.208H824.644L824.508 830.052Z" fill="#C4C4C4"/>
<path d="M1480.25 830.052C1470.32 830.052 1464.33 825.2 1464.33 811.27V486.014C1464.33 465.509 1450.59 457.683 1450.59 457.683H1496.86C1510.6 457.683 1516.72 465.353 1516.72 476.779V830.209H1479.98L1480.25 830.052Z" fill="#C4C4C4"/>
<path d="M2132.87 577.267C2084.56 576.64 2076.13 633.928 2076.13 694.972C2076.13 770.886 2092.73 807.199 2132.87 807.199C2168.25 807.199 2184.85 760.242 2184.85 694.972C2184.85 641.754 2180.5 577.893 2132.87 577.267ZM2131.92 834.121C2053.54 833.652 2025.37 777.773 2025.37 693.72C2025.37 617.023 2053.54 547.997 2131.92 548.466C2211.25 549.092 2235.47 617.963 2235.47 693.72C2235.47 771.199 2197.37 834.747 2131.92 834.121Z" fill="#C4C4C4"/>
<path d="M2847.94 810.017C2830.93 826.609 2808.48 834.748 2783.44 835.061H2780.86C2743.3 835.061 2722.76 823.478 2713.77 817.53L2706.97 784.817C2706.97 784.817 2739.76 809.548 2773.92 809.548C2806.85 809.548 2825.63 789.199 2823.45 755.547C2820.05 701.859 2712.01 714.694 2712.01 625.789C2712.01 576.954 2746.57 551.284 2789.02 550.658H2791.75C2835.56 550.658 2851.75 568.345 2851.75 568.345L2858.42 598.867C2858.42 598.867 2839.64 577.58 2802.09 577.58C2761.67 577.58 2757.73 614.832 2758.54 625.163C2761.13 651.928 2778.82 658.346 2810.52 674.311C2843.59 690.59 2869.72 711.564 2869.72 751.947C2869.72 777.617 2861.14 797.339 2848.22 810.017H2847.94Z" fill="#C4C4C4"/>
<path d="M2912.72 830.052C2903.87 830.052 2899.11 824.73 2899.11 815.652V579.145C2899.11 560.988 2884.14 554.414 2884.14 554.414H2932.99C2942.79 554.414 2946.6 560.362 2946.6 570.849V830.052H2912.72Z" fill="#C4C4C4"/>
<path d="M1598.37 554.414C1607.48 554.414 1612.11 559.423 1612.11 568.658V590.258C1625.17 565.841 1648.44 550.345 1680.28 550.345C1705.32 550.345 1722.33 556.919 1737.16 575.545C1752.81 595.736 1756.76 620.467 1756.76 654.276V830.208H1728.18C1715.94 830.208 1708.86 820.661 1708.86 807.513V648.328C1708.86 599.18 1696.07 585.249 1666.41 585.249C1641.78 585.249 1614.83 604.345 1614.83 633.772V830.365H1567.34V578.519C1567.34 559.11 1554.14 554.727 1554.14 554.727H1598.5L1598.37 554.414Z" fill="#C4C4C4"/>
<path d="M3118.74 687.928C3118.74 687.928 3106.62 684.798 3091.79 684.798C3059.13 684.798 3034.91 701.389 3028.25 726.433C3026.75 731.129 3026.48 741.616 3026.48 746.938C3026.48 778.712 3045.66 796.556 3069.48 796.556C3073.97 796.556 3081.59 795.303 3087.85 792.486C3104.86 785.286 3118.74 772.138 3118.74 752.103V687.928ZM3141.19 830.052C3138.87 830.052 3129.62 830.678 3125.4 825.512C3122 821.443 3122 815.338 3122 810.33V794.364C3107.58 818.625 3083.36 835.06 3047.16 834.121C2990.28 832.243 2977.9 780.903 2977.9 752.572C2977.9 742.555 2978.58 723.459 2991.78 703.111C3011.78 670.554 3053.56 659.911 3090.7 659.911C3106.9 659.911 3119.01 662.572 3119.01 662.572V633.928C3119.01 623.754 3120.37 607.632 3110.43 594.014C3103.22 583.527 3087.98 576.014 3062.13 576.327C3017.77 577.266 2999.4 601.527 2999.4 601.527L3004.16 567.718C3004.16 567.718 3030.29 547.214 3072.47 547.214C3107.71 547.214 3131.93 558.327 3146.22 574.918C3162.82 594.64 3166.77 612.797 3166.77 649.111V830.052H3141.32H3141.19Z" fill="#C4C4C4"/>
<path d="M1035.02 647.232C1035.02 631.58 1033.25 608.727 1022.36 595.58C1014.74 586.345 1002.77 579.927 985.621 579.927C939.083 579.927 933.777 651.145 933.777 689.494V693.563C934.185 747.877 947.656 801.721 986.574 801.721C1007.67 801.721 1022.36 792.329 1035.02 774.016V647.076V647.232ZM1049.85 830.051C1040.46 830.051 1037.19 826.451 1037.19 816.434V802.816C1019.23 821.286 1001.81 833.495 975.552 833.965H974.599C906.153 833.965 882.34 767.442 882.34 693.563C882.34 638.154 900.846 548.309 976.912 548.309C1022.5 548.309 1035.15 579.927 1035.15 579.927V486.013C1035.15 466.291 1021 456.117 1021 456.117H1058.15C1072.44 456.117 1083.05 467.543 1083.05 479.909V830.051H1049.98H1049.85Z" fill="#C4C4C4"/>
<path d="M1258.72 687.928C1258.72 687.928 1246.75 684.798 1231.92 684.798C1199.26 684.798 1175.04 701.389 1168.37 726.433C1167.01 731.129 1166.46 741.616 1166.46 746.938C1166.46 778.712 1185.65 796.556 1209.46 796.556C1213.96 796.556 1221.58 795.303 1227.83 792.486C1244.84 785.286 1258.72 772.138 1258.72 752.103V687.928ZM1281.04 830.052C1278.86 830.052 1269.34 830.678 1265.39 825.512C1261.72 821.443 1261.72 815.338 1261.72 810.33V794.364C1247.43 818.625 1223.34 835.06 1187.01 834.121C1130.27 832.243 1117.61 780.903 1117.61 752.572C1117.61 742.555 1118.43 723.459 1131.49 703.111C1151.63 670.554 1193.27 659.911 1230.56 659.911C1246.75 659.911 1258.72 662.572 1258.72 662.572V633.928C1258.72 623.754 1258.72 606.38 1249.88 594.171C1242.39 583.997 1228.24 576.327 1203.48 576.327C1164.7 576.327 1139.11 601.527 1139.11 601.527L1143.88 567.718C1143.88 567.718 1170.14 547.214 1212.19 547.214C1247.57 547.214 1271.79 558.327 1286.07 574.918C1302.54 594.64 1306.62 612.797 1306.62 649.111V830.052H1281.04Z" fill="#C4C4C4"/>
<path d="M1944.13 647.232C1944.13 631.58 1942.36 608.727 1931.61 595.58C1924.13 586.345 1912.02 579.927 1894.87 579.927C1848.34 579.927 1842.89 651.145 1842.89 689.494V693.563C1843.44 747.877 1856.77 801.721 1895.83 801.721C1917.05 801.721 1931.48 792.329 1944.13 774.016V647.076V647.232ZM1959.1 830.051C1949.71 830.051 1946.31 826.451 1946.31 816.434V802.816C1928.48 821.286 1910.93 833.495 1884.53 833.965H1883.31C1815.27 833.965 1791.46 767.442 1791.46 693.563C1791.46 638.154 1809.83 548.309 1885.89 548.309C1931.48 548.309 1944 579.927 1944 579.927V486.013C1944 466.291 1929.98 456.117 1929.98 456.117H1967.27C1981.55 456.117 1992.03 467.543 1992.03 479.909V830.051H1959.1Z" fill="#C4C4C4"/>
<path d="M2300.24 554.414C2309.5 554.414 2314.12 559.423 2314.12 568.658V590.258C2327.05 565.841 2350.32 550.345 2382.3 550.345C2407.33 550.345 2424.21 556.919 2439.04 575.545C2454.69 595.736 2458.77 620.467 2458.77 654.276V830.208H2430.06C2417.95 830.208 2410.87 820.661 2410.87 807.513V648.328C2410.87 599.18 2398.08 585.249 2368.28 585.249C2343.65 585.249 2316.84 604.345 2316.84 633.772V830.365H2269.22V578.519C2269.22 559.11 2256.02 554.727 2256.02 554.727H2300.11L2300.24 554.414Z" fill="#C4C4C4"/>
<path d="M197.882 831.93C178.56 834.904 166.993 836 148.215 836C98.9559 836 67.6586 818.939 43.8455 792.173C9.01025 752.416 0.0292969 686.364 0.0292969 645.041C0.0292969 611.702 4.928 546.275 51.4657 495.875C72.9655 472.709 106.44 452.987 156.652 452.987C201.42 452.987 222.92 467.7 222.92 467.7L231.221 501.823C229.452 500.883 206.319 485.544 167.81 485.544C88.7502 485.544 55.5479 547.997 55.5479 645.198C55.5479 792.173 117.734 803.756 152.978 803.756C178.015 803.756 188.085 799.217 188.085 799.217V653.181H160.598C142.092 653.181 134.199 656.468 134.199 656.468L138.145 626.885H239.657V821.443C223.056 826.452 214.211 829.426 197.61 831.93H197.882Z" fill="#C4C4C4"/>
<path d="M2542.32 692.311C2542.32 692.311 2554.43 695.285 2569.26 695.285C2622.47 695.285 2634.58 665.232 2637.03 630.484C2639.07 599.493 2631.86 568.657 2590.22 574.605C2552.39 580.084 2542.32 608.414 2542.32 643.789C2542.32 673.059 2542.46 692.311 2542.46 692.311H2542.32ZM2614.03 547.37C2670.77 552.066 2683.43 600.745 2683.43 628.919C2683.43 639.093 2682.61 658.189 2669.55 678.38C2649.41 711.094 2607.77 721.581 2570.62 721.581C2554.43 721.581 2542.46 719.077 2542.46 719.077V744.59C2542.46 792.799 2564.77 805.791 2601.65 805.164C2642.88 804.538 2675.54 775.268 2675.54 775.268L2670.91 809.078C2670.91 809.078 2633.49 834.121 2591.31 834.121C2555.93 834.121 2529.26 823.321 2515.1 806.417C2497.55 785.442 2494.56 757.268 2494.56 720.955V660.693C2494.56 609.354 2512.93 539.074 2614.03 547.37Z" fill="#C4C4C4"/>
</svg>
