<?xml version="1.0" encoding="iso-8859-1"?>
<!-- Generator: Adobe Illustrator 19.0.0, SVG Export Plug-In . SVG Version: 6.00 Build 0)  -->
<svg version="1.1" id="Capa_1" xmlns="http://www.w3.org/2000/svg" xmlns:xlink="http://www.w3.org/1999/xlink" x="0px" y="0px"
	 viewBox="0 0 512 512" style="enable-background:new 0 0 512 512;" xml:space="preserve">
<g>
	<g>
		<circle cx="95.995" cy="64" r="64"/>
	</g>
</g>
<g>
	<g>
		<circle cx="415.995" cy="64" r="64"/>
	</g>
</g>
<g>
	<g>
		<circle cx="255.995" cy="64" r="64"/>
	</g>
</g>
<g>
	<g>
		<path d="M351.899,334.4l-14.56-145.568C335.707,172.384,322.011,160,305.531,160h-99.04c-16.512,0-30.208,12.384-31.84,28.8
			l-14.56,145.6c-0.448,4.512,1.024,8.96,4.064,12.352c3.008,3.328,7.328,5.248,11.84,5.248h17.504l13.12,131.2
			c1.632,16.384,15.36,28.8,31.872,28.8h35.04c16.512,0,30.208-12.416,31.84-28.8l13.12-131.2h17.504
			c4.544,0,8.832-1.92,11.872-5.248C350.907,343.392,352.379,338.912,351.899,334.4z"/>
	</g>
</g>
<g>
	<g>
		<path d="M140.475,368.288c-9.184-10.24-13.6-23.648-12.256-37.088l14.56-145.568c0.896-9.056,4.192-17.12,8.384-24.576
			c-1.888-0.352-3.648-1.056-5.632-1.056h-99.04c-16.512,0-30.208,12.384-31.84,28.8L0.091,334.4
			c-0.448,4.512,1.024,8.96,4.064,12.352C7.163,350.08,11.483,352,15.995,352h17.504l13.12,99.2
			c1.632,16.384,15.36,28.8,31.872,28.8h35.04c16.512,0,30.208-12.416,31.84-28.8l9.6-72.512
			C149.595,376.064,144.571,372.8,140.475,368.288z"/>
	</g>
</g>
<g>
	<g>
		<path d="M511.899,334.336l-14.56-145.504C495.707,172.384,482.043,160,465.531,160h-99.04c-2.016,0-3.776,0.704-5.696,1.056
			c4.192,7.456,7.488,15.52,8.384,24.576l14.56,145.568c1.376,13.312-3.008,26.816-12.064,36.896
			c-4.16,4.576-9.248,7.872-14.624,10.528l9.6,72.512c1.632,16.416,15.328,28.8,31.84,28.8h35.04c16.512,0,30.208-12.416,31.84-28.8
			l13.12-99.2h17.504c4.544,0,8.832-1.92,11.872-5.248C510.907,343.328,512.379,338.848,511.899,334.336z"/>
	</g>
</g>
<g>
</g>
<g>
</g>
<g>
</g>
<g>
</g>
<g>
</g>
<g>
</g>
<g>
</g>
<g>
</g>
<g>
</g>
<g>
</g>
<g>
</g>
<g>
</g>
<g>
</g>
<g>
</g>
<g>
</g>
</svg>
