<svg width="2668" height="735" viewBox="0 0 2668 735" fill="none" xmlns="http://www.w3.org/2000/svg">
<path d="M720.464 473.025C627.652 714.951 398.692 735 235.688 735C144.367 735 65.3368 725.772 0 711.148L57.968 560.412C213.231 578.544 346.141 564.851 398.043 429.291L562.964 0H902.198L720.464 473.025ZM2114.41 445.813L2301.29 212.862L2309.9 445.813H2114.41ZM2598.1 0.767585H2287.6C2249.85 0.767585 2208.62 22.896 2181.07 54.7047L1594.16 734.667H1881.11L2001.57 585.624H2315.16L2320.64 734.667H2667.92" fill="#C4C4C4"/>
<path d="M1066.47 3.65381L1000.21 168.628H1252.02L1053.22 732.289H1384.55L1583.36 168.628H1835.17L1901.44 3.65381H1066.47Z" fill="#C4C4C4"/>
</svg>
