<svg width="16867" height="892" viewBox="0 0 16867 892" fill="none" xmlns="http://www.w3.org/2000/svg">
<path fill-rule="evenodd" clip-rule="evenodd" d="M314.416 481.174H187.053L254.714 262.908L314.416 481.174ZM127.357 701.804L167.151 568.792H330.334L370.127 701.804H505.449L362.169 196.996C354.21 163.842 338.292 153.185 302.472 153.185H103.475V198.573H119.398C143.275 198.573 155.218 206.076 155.218 224.231C155.218 235.674 155.218 243.177 143.275 270.411L0 701.804" fill="#C4C4C4"/>
<path d="M676.585 701.809V193.44C676.585 167.003 660.661 153.185 632.8 153.185H509.428V198.573H517.387C541.269 198.573 553.207 208.445 553.207 229.754V701.804L676.585 701.809ZM899.458 701.809V193.44C899.458 167.003 883.541 153.185 855.673 153.185H732.302V198.573H740.26C764.142 198.573 776.08 208.445 776.08 229.754V701.804" fill="#C4C4C4"/>
<path fill-rule="evenodd" clip-rule="evenodd" d="M1126.31 201.734C1126.31 165.419 1098.46 144.11 1054.68 144.11C1006.91 144.11 983.036 165.419 983.036 201.734C983.036 238.834 1006.91 260.539 1054.68 260.539C1098.46 260.539 1126.31 238.828 1126.31 201.734ZM1122.33 701.803V331.585C1122.33 305.928 1106.41 290.934 1082.54 290.934H959.154V335.531H967.119C990.995 335.531 998.954 345.397 998.954 367.894V701.803H1122.33ZM1416.85 502.489V584.582C1392.96 608.261 1365.11 621.683 1341.23 621.683C1317.35 621.683 1305.41 610.234 1305.41 579.449C1305.41 545.509 1313.37 532.482 1341.23 521.825C1361.12 513.536 1381.03 508.408 1416.85 502.489V502.489ZM1241.73 404.203L1253.67 399.465C1285.51 386.834 1305.41 382.102 1329.29 377.754C1341.23 376.182 1357.15 374.599 1365.11 374.599C1404.9 374.599 1416.85 387.626 1416.85 423.934V434.202C1361.13 443.282 1345.2 446.437 1313.37 453.142C1297.06 457.154 1281.08 462.434 1265.61 468.933C1213.87 489.457 1189.99 528.926 1189.99 590.892C1189.99 668.643 1221.83 705.744 1293.47 705.744C1321.33 705.744 1349.18 699.428 1369.09 686.798C1388.98 677.718 1396.95 672.985 1420.82 651.28V663.911C1420.82 689.562 1432.76 701.803 1456.64 701.803H1576.04V659.569H1572.06C1548.18 659.569 1536.24 648.911 1536.24 627.597V425.913C1536.24 320.922 1500.42 285.404 1396.95 285.404C1361.13 285.404 1329.29 289.351 1297.45 296.848C1265.61 304.345 1249.69 309.874 1213.87 328.424L1241.73 404.203ZM1763.1 701.809V423.149C1790.96 397.491 1810.85 387.626 1838.72 387.626C1866.57 387.626 1874.54 399.465 1874.54 441.303V701.797H1997.91V421.577C1997.91 363.953 1989.95 339.082 1974.03 317.377C1954.14 296.062 1930.25 286.196 1894.43 286.196C1846.67 286.196 1810.85 303.565 1755.14 351.323V329.216C1755.14 303.565 1743.2 290.934 1719.32 290.934H1599.92V335.531H1603.9C1627.78 335.531 1639.72 345.397 1639.72 367.894V701.803" fill="#C4C4C4"/>
<path d="M2380.04 623.216H2196.96L2372.08 375.35V290.886H2109.4C2077.56 290.886 2065.62 303.517 2065.62 333.908V408.505H2109.4V400.216C2109.4 377.718 2121.34 368.641 2145.22 368.641H2240.74L2061.65 616.505V701.759H2380.04" fill="#C4C4C4"/>
<path fill-rule="evenodd" clip-rule="evenodd" d="M3084.48 679.262V214.316C3084.48 176.821 3068.56 164.585 3032.74 164.585H2925.28V215.897H2937.22C2957.12 215.897 2965.08 223.394 2965.08 246.286V679.262H3084.48ZM3148.15 679.262H3263.57V328.382C3263.57 292.86 3247.66 278.651 3211.84 278.651H3148.15V679.262ZM2901.4 679.262V278.651H2837.72C2801.9 278.651 2785.98 292.86 2785.98 328.382V679.262H2901.4ZM3398.89 445.606C3398.89 663.08 3239.69 821.744 3024.78 821.744C2809.86 821.744 2650.67 663.08 2650.67 445.606C2650.67 228.132 2809.86 69.4659 3024.78 69.4659C3239.69 69.4659 3398.89 228.132 3398.89 445.606ZM3474.51 445.606C3474.51 191.031 3283.47 0.000149147 3024.78 0.000149147C2770.06 0.000149147 2575.05 191.031 2575.05 445.606C2575.05 700.97 2770.06 892 3024.78 892C3283.47 892 3474.51 700.97 3474.51 445.606Z" fill="#C4C4C4"/>
<path d="M7670.52 375.804C7591.32 328.221 7525.6 324.621 7494.85 324.621H7387.89L7382.18 313.038H7507.91C7516.62 313.038 7620.85 311.316 7682.22 330.255C7758.97 353.89 7812.04 400.221 7822.38 408.048C7832.72 415.717 7972.74 531.075 7972.74 531.075C7972.74 531.075 7949.2 558.78 7926.2 558.78C7904.43 558.78 7880.89 539.527 7880.89 539.527C7880.89 539.527 7805.91 477.387 7794.48 468.152C7783.05 458.918 7723.86 408.204 7670.38 375.96L7670.52 375.804Z" fill="#C4C4C4"/>
<path d="M7664.8 466.744C7717.74 507.127 7748.9 536.71 7759.1 545.162C7769.17 553.615 7816.26 592.276 7816.26 592.276C7816.26 592.276 7837.89 611.685 7864.43 611.685C7884.57 611.685 7909.33 584.763 7909.33 584.763C7909.33 584.763 7796.93 493.51 7786.73 485.37C7776.52 477.075 7740.46 444.361 7673.24 424.013C7617.04 406.952 7537.17 407.422 7531.86 407.422H7429.53L7435.52 419.317C7435.52 419.317 7512.67 419.474 7518.52 419.474C7530.91 419.474 7609.01 423.857 7664.8 466.431V466.744Z" fill="#C4C4C4"/>
<path d="M7682.09 280.48C7750.26 322.585 7817.75 380.812 7830.27 391.299C7842.93 401.786 7945.39 486.152 7945.39 486.152C7945.39 486.152 7969.34 504.778 7991.25 504.778C8012.61 504.778 8036.83 477.543 8036.83 477.543C8036.83 477.543 7873.27 342.15 7858.58 330.255C7843.88 318.359 7784.96 262.793 7690.39 236.967C7616.36 215.367 7492.81 217.871 7484.23 217.871H7334.55L7340.54 229.767H7471.17C7498.25 229.767 7602.62 231.332 7681.95 280.48H7682.09Z" fill="#C4C4C4"/>
<path d="M8274.83 278.602C8254.69 274.533 8228.16 272.655 8228.16 272.655L8191.96 284.55L8171.28 264.672C8171.28 264.672 8214.41 268.585 8226.39 270.62C8236.73 270.62 8233.33 264.672 8228.02 252.62C8222.85 240.724 8210.87 240.724 8210.87 240.724H8102.15C8102.15 240.724 8082.69 240.88 8060.37 234.932C8037.92 228.985 8029.08 209.576 8029.08 209.576C8020.37 232.585 8054.93 259.35 8054.93 259.35L8162.57 348.099C8176.45 358.116 8188.42 350.134 8188.42 350.134C8188.42 350.134 8216.04 334.168 8231.56 330.255C8245.44 326.342 8288.44 324.307 8293.61 326.342C8305.72 328.377 8319.46 342.307 8319.46 342.307C8326.4 286.585 8295.24 282.985 8274.69 278.602H8274.83Z" fill="#C4C4C4"/>
<path d="M7703.31 94.6874C7778.29 132.566 7885.52 224.758 7901.17 237.906C7916.95 251.054 8071.4 378.308 8071.4 378.308C8071.4 378.308 8095.62 398.186 8118.07 398.186C8140.52 398.186 8162.7 372.203 8162.7 372.203C8162.7 372.203 7944.44 191.732 7928.65 178.74C7912.87 165.749 7840.48 95.6265 7705.9 54.7739C7613.78 26.7562 7455.38 28.0084 7437.01 28.0084H7239.43L7245.56 40.0607H7426.67C7472.39 40.0607 7604.25 44.4434 7703.45 94.6874H7703.31Z" fill="#C4C4C4"/>
<path d="M7691.88 187.349C7610.92 140.705 7511.04 134.914 7452.94 134.914H7293.05L7287.06 123.018H7460.83C7479.61 123.018 7611.19 121.453 7698.28 144.149C7798.7 170.445 7885.11 246.202 7894.09 253.402C7902.66 260.289 8100.93 423.856 8100.93 423.856C8100.93 423.856 8078.34 450.622 8053.98 450.622C8031.66 450.622 8007.44 430.743 8007.44 430.743C8007.44 430.743 7878.44 324.307 7865.92 314.133C7853.54 303.959 7767.27 230.55 7691.88 187.193V187.349Z" fill="#C4C4C4"/>
<path d="M4789.95 715.928C4789.95 715.928 4777.83 712.798 4763.14 712.798C4730.48 712.798 4706.26 729.389 4699.59 754.433C4698.09 759.129 4697.69 769.616 4697.69 774.938C4697.69 806.712 4717.01 824.556 4740.69 824.556C4745.18 824.556 4752.66 823.303 4759.06 820.486C4776.07 813.286 4789.95 800.138 4789.95 780.103V715.928ZM4812.4 858.052C4810.22 858.052 4800.7 858.678 4796.75 853.512C4792.94 849.443 4792.94 843.338 4792.94 838.33V822.364C4778.65 846.625 4754.57 863.06 4718.37 862.121C4661.49 860.243 4648.97 808.903 4648.97 780.572C4648.97 770.555 4649.79 751.459 4662.72 731.111C4682.85 698.554 4724.63 687.911 4761.91 687.911C4777.83 687.911 4789.95 690.572 4789.95 690.572V661.928C4789.95 651.754 4789.95 634.38 4781.1 622.171C4773.48 611.997 4759.46 604.327 4734.56 604.327C4695.78 604.327 4670.34 629.527 4670.34 629.527L4674.96 595.718C4674.96 595.718 4701.22 575.214 4743.41 575.214C4778.65 575.214 4803.01 586.327 4817.3 602.918C4833.76 622.64 4837.84 640.797 4837.84 677.111V858.052H4812.4Z" fill="#C4C4C4"/>
<path d="M4969.16 613.093C4928.33 622.015 4923.84 659.111 4923.84 685.25V858.052H4875.95V611.058C4875.95 587.267 4862.34 582.258 4862.34 582.258H4909.69C4920.17 582.258 4923.84 588.989 4923.84 596.502V611.528C4925.34 606.519 4942.49 580.223 4974.19 578.971C4984.53 578.501 4996.37 579.597 5002.77 583.98L5009.03 618.728C5001.95 614.189 4988.62 608.711 4969.02 612.937L4969.16 613.093Z" fill="#C4C4C4"/>
<path d="M5198.99 858.052C5197.35 858.052 5187.42 858.678 5182.93 853.513C5179.39 849.443 5179.39 841.93 5179.39 838.33V822.364C5166.47 846.625 5143.2 861.965 5111.22 861.965C5086.18 861.965 5069.17 855.391 5054.34 836.921C5038.69 816.886 5034.75 791.999 5034.75 758.346V606.988C5034.75 587.423 5020.05 582.258 5020.46 582.414H5065.09C5076.11 582.414 5082.78 588.832 5082.78 598.379V764.607C5082.78 813.756 5095.43 827.686 5125.37 827.686C5150 827.686 5176.81 808.59 5176.81 779.32V582.571H5224.3V858.208H5199.12L5198.99 858.052Z" fill="#C4C4C4"/>
<path d="M5854.73 858.052C5844.8 858.052 5838.81 853.2 5838.81 839.27V514.014C5838.81 493.509 5825.07 485.683 5825.07 485.683H5871.33C5885.08 485.683 5891.2 493.353 5891.2 504.779V858.209H5854.46L5854.73 858.052Z" fill="#C4C4C4"/>
<path d="M6507.35 605.267C6459.04 604.64 6450.61 661.928 6450.61 722.972C6450.61 798.886 6467.21 835.199 6507.35 835.199C6542.73 835.199 6559.33 788.242 6559.33 722.972C6559.33 669.754 6554.98 605.893 6507.35 605.267ZM6506.4 862.121C6428.02 861.652 6399.85 805.773 6399.85 721.72C6399.85 645.023 6428.02 575.997 6506.4 576.466C6585.73 577.092 6609.95 645.963 6609.95 721.72C6609.95 799.199 6571.85 862.747 6506.4 862.121Z" fill="#C4C4C4"/>
<path d="M7222.42 838.017C7205.41 854.609 7182.96 862.748 7157.92 863.061H7155.34C7117.78 863.061 7097.23 851.478 7088.25 845.53L7081.45 812.817C7081.45 812.817 7114.24 837.548 7148.4 837.548C7181.33 837.548 7200.11 817.199 7197.93 783.547C7194.53 729.859 7086.48 742.694 7086.48 653.789C7086.48 604.954 7121.05 579.284 7163.5 578.658H7166.22C7210.04 578.658 7226.23 596.345 7226.23 596.345L7232.9 626.867C7232.9 626.867 7214.12 605.58 7176.57 605.58C7136.15 605.58 7132.21 642.832 7133.02 653.163C7135.61 679.928 7153.3 686.346 7185 702.311C7218.07 718.59 7244.2 739.564 7244.2 779.947C7244.2 805.617 7235.62 825.339 7222.7 838.017H7222.42Z" fill="#C4C4C4"/>
<path d="M7287.2 858.052C7278.35 858.052 7273.59 852.73 7273.59 843.652V607.145C7273.59 588.988 7258.62 582.414 7258.62 582.414H7307.47C7317.27 582.414 7321.08 588.362 7321.08 598.849V858.052H7287.2Z" fill="#C4C4C4"/>
<path d="M5972.85 582.414C5981.96 582.414 5986.59 587.423 5986.59 596.658V618.258C5999.65 593.841 6022.92 578.345 6054.76 578.345C6079.8 578.345 6096.81 584.919 6111.64 603.545C6127.29 623.736 6131.24 648.467 6131.24 682.276V858.208H6102.66C6090.42 858.208 6083.34 848.661 6083.34 835.513V676.328C6083.34 627.18 6070.55 613.249 6040.88 613.249C6016.25 613.249 5989.31 632.345 5989.31 661.772V858.365H5941.82V606.519C5941.82 587.11 5928.62 582.727 5928.62 582.727H5972.98L5972.85 582.414Z" fill="#C4C4C4"/>
<path d="M7493.21 715.928C7493.21 715.928 7481.1 712.798 7466.27 712.798C7433.61 712.798 7409.39 729.389 7402.72 754.433C7401.23 759.129 7400.96 769.616 7400.96 774.938C7400.96 806.712 7420.14 824.556 7443.96 824.556C7448.45 824.556 7456.07 823.303 7462.33 820.486C7479.33 813.286 7493.21 800.138 7493.21 780.103V715.928ZM7515.67 858.052C7513.35 858.052 7504.1 858.678 7499.88 853.512C7496.48 849.443 7496.48 843.338 7496.48 838.33V822.364C7482.06 846.625 7457.84 863.06 7421.64 862.121C7364.76 860.243 7352.38 808.903 7352.38 780.572C7352.38 770.555 7353.06 751.459 7366.26 731.111C7386.26 698.554 7428.03 687.911 7465.18 687.911C7481.38 687.911 7493.49 690.572 7493.49 690.572V661.928C7493.49 651.754 7494.85 635.632 7484.91 622.014C7477.7 611.527 7462.46 604.014 7436.61 604.327C7392.25 605.266 7373.88 629.527 7373.88 629.527L7378.64 595.718C7378.64 595.718 7404.77 575.214 7446.95 575.214C7482.19 575.214 7506.41 586.327 7520.7 602.918C7537.3 622.64 7541.25 640.797 7541.25 677.111V858.052H7515.8H7515.67Z" fill="#C4C4C4"/>
<path d="M5409.5 675.232C5409.5 659.58 5407.73 636.727 5396.84 623.58C5389.22 614.345 5377.25 607.927 5360.1 607.927C5313.56 607.927 5308.26 679.145 5308.26 717.494V721.563C5308.66 775.877 5322.14 829.721 5361.05 829.721C5382.14 829.721 5396.84 820.329 5409.5 802.016V675.076V675.232ZM5424.33 858.051C5414.94 858.051 5411.67 854.451 5411.67 844.434V830.816C5393.71 849.286 5376.29 861.495 5350.03 861.965H5349.08C5280.63 861.965 5256.82 795.442 5256.82 721.563C5256.82 666.154 5275.33 576.309 5351.39 576.309C5396.98 576.309 5409.63 607.927 5409.63 607.927V514.013C5409.63 494.291 5395.48 484.117 5395.48 484.117H5432.63C5446.92 484.117 5457.53 495.543 5457.53 507.909V858.051H5424.46H5424.33Z" fill="#C4C4C4"/>
<path d="M5633.2 715.928C5633.2 715.928 5621.23 712.798 5606.4 712.798C5573.74 712.798 5549.52 729.389 5542.85 754.433C5541.49 759.129 5540.94 769.616 5540.94 774.938C5540.94 806.712 5560.13 824.556 5583.94 824.556C5588.43 824.556 5596.05 823.303 5602.31 820.486C5619.32 813.286 5633.2 800.138 5633.2 780.103V715.928ZM5655.52 858.052C5653.34 858.052 5643.82 858.678 5639.87 853.512C5636.2 849.443 5636.2 843.338 5636.2 838.33V822.364C5621.91 846.625 5597.82 863.06 5561.49 862.121C5504.75 860.243 5492.09 808.903 5492.09 780.572C5492.09 770.555 5492.91 751.459 5505.97 731.111C5526.11 698.554 5567.75 687.911 5605.04 687.911C5621.23 687.911 5633.2 690.572 5633.2 690.572V661.928C5633.2 651.754 5633.2 634.38 5624.36 622.171C5616.87 611.997 5602.72 604.327 5577.96 604.327C5539.18 604.327 5513.59 629.527 5513.59 629.527L5518.36 595.718C5518.36 595.718 5544.62 575.214 5586.67 575.214C5622.05 575.214 5646.27 586.327 5660.55 602.918C5677.02 622.64 5681.1 640.797 5681.1 677.111V858.052H5655.52Z" fill="#C4C4C4"/>
<path d="M6318.61 675.232C6318.61 659.58 6316.84 636.727 6306.09 623.58C6298.61 614.345 6286.5 607.927 6269.35 607.927C6222.82 607.927 6217.37 679.145 6217.37 717.494V721.563C6217.92 775.877 6231.25 829.721 6270.31 829.721C6291.53 829.721 6305.96 820.329 6318.61 802.016V675.076V675.232ZM6333.58 858.051C6324.19 858.051 6320.79 854.451 6320.79 844.434V830.816C6302.96 849.286 6285.41 861.495 6259.01 861.965H6257.79C6189.75 861.965 6165.94 795.442 6165.94 721.563C6165.94 666.154 6184.31 576.309 6260.37 576.309C6305.96 576.309 6318.48 607.927 6318.48 607.927V514.013C6318.48 494.291 6304.46 484.117 6304.46 484.117H6341.75C6356.03 484.117 6366.51 495.543 6366.51 507.909V858.051H6333.58Z" fill="#C4C4C4"/>
<path d="M6674.72 582.414C6683.98 582.414 6688.6 587.423 6688.6 596.658V618.258C6701.53 593.841 6724.8 578.345 6756.78 578.345C6781.81 578.345 6798.69 584.919 6813.52 603.545C6829.17 623.736 6833.25 648.467 6833.25 682.276V858.208H6804.54C6792.43 858.208 6785.35 848.661 6785.35 835.513V676.328C6785.35 627.18 6772.56 613.249 6742.76 613.249C6718.13 613.249 6691.32 632.345 6691.32 661.772V858.365H6643.7V606.519C6643.7 587.11 6630.5 582.727 6630.5 582.727H6674.59L6674.72 582.414Z" fill="#C4C4C4"/>
<path d="M4572.36 859.93C4553.04 862.904 4541.47 864 4522.69 864C4473.44 864 4442.14 846.939 4418.32 820.173C4383.49 780.416 4374.51 714.364 4374.51 673.041C4374.51 639.702 4379.41 574.275 4425.95 523.875C4447.45 500.709 4480.92 480.987 4531.13 480.987C4575.9 480.987 4597.4 495.7 4597.4 495.7L4605.7 529.823C4603.93 528.883 4580.8 513.544 4542.29 513.544C4463.23 513.544 4430.03 575.997 4430.03 673.198C4430.03 820.173 4492.21 831.756 4527.46 831.756C4552.49 831.756 4562.56 827.217 4562.56 827.217V681.181H4535.08C4516.57 681.181 4508.68 684.468 4508.68 684.468L4512.62 654.885H4614.14V849.443C4597.54 854.452 4588.69 857.426 4572.09 859.93H4572.36Z" fill="#C4C4C4"/>
<path d="M6916.8 720.311C6916.8 720.311 6928.91 723.285 6943.74 723.285C6996.95 723.285 7009.06 693.232 7011.51 658.484C7013.55 627.493 7006.34 596.657 6964.7 602.605C6926.87 608.084 6916.8 636.414 6916.8 671.789C6916.8 701.059 6916.94 720.311 6916.94 720.311H6916.8ZM6988.51 575.37C7045.25 580.066 7057.91 628.745 7057.91 656.919C7057.91 667.093 7057.09 686.189 7044.03 706.38C7023.89 739.094 6982.25 749.581 6945.1 749.581C6928.91 749.581 6916.94 747.077 6916.94 747.077V772.59C6916.94 820.799 6939.25 833.791 6976.13 833.164C7017.36 832.538 7050.02 803.268 7050.02 803.268L7045.39 837.078C7045.39 837.078 7007.97 862.121 6965.79 862.121C6930.41 862.121 6903.74 851.321 6889.58 834.417C6872.03 813.442 6869.04 785.268 6869.04 748.955V688.693C6869.04 637.354 6887.41 567.074 6988.51 575.37Z" fill="#C4C4C4"/>
<path d="M13267.9 754.104C13250.9 754.104 13237.4 767.637 13237.4 784.586C13237.4 801.544 13250.9 815.05 13267.9 815.05C13284.9 815.05 13298.4 801.544 13298.4 784.586C13298.5 780.573 13297.7 776.597 13296.2 772.886C13294.6 769.176 13292.4 765.805 13289.5 762.97C13286.7 760.134 13283.3 757.89 13279.6 756.368C13275.9 754.845 13271.9 754.074 13267.9 754.099V754.104ZM13267.9 810.387C13253.9 810.387 13242 798.972 13242 784.586C13242 770.182 13253.9 758.827 13267.9 758.827C13281.9 758.827 13293.7 770.182 13293.7 784.586C13293.7 798.968 13281.9 810.387 13267.9 810.387Z" fill="#C4C4C4"/>
<path d="M13282.9 776.506C13282.9 769.329 13277 767.696 13271 767.696H13256.5V801.036H13261.2V785.638H13266.8L13276.8 801.036H13282.4L13272.4 785.638C13278.3 785.466 13282.9 783.098 13282.9 776.51V776.506ZM13266.8 781.002H13261.2V772.409H13270.1C13273.7 772.409 13278.2 773.013 13278.2 776.424C13278.2 781.737 13270.9 781.006 13266.8 781.006V781.002ZM13072.3 815.463C13078.5 798.772 13083.7 781.769 13088.1 764.524C13096.7 728.505 13101.1 691.584 13101.1 654.536C13101.1 632.864 13099.6 611.423 13096.7 590.323C13094.6 621.068 13089.2 648.012 13089.2 648.012C13090.5 652.072 13092.7 658.741 13093.7 662.856L13093.7 662.874C13090.5 694.064 13084.6 724.916 13076 755.093C13072 740.198 13066.6 725.862 13066.2 724.937L13066.2 724.887C13055.3 753.877 13039.1 788.011 13024.3 815.463H13072.3Z" fill="#C4C4C4"/>
<path d="M12971.6 815.463H12999.4C13078.4 698.71 13082.4 595.236 13082.4 575.411C13082.4 537.96 13076.1 503.549 13065.6 476.301C13065.6 476.301 13049.2 433.955 13023.6 396.273C13026.4 404.693 13031.8 421.765 13034.8 437.013C13035 438.029 13035.1 438.927 13035.3 439.758C13040.3 448.146 13063 488.155 13066 532.153L13066 532.284C13066 532.284 13050 509.827 13038.1 495.637C13037.7 519.817 13034.5 544.021 13029.5 567.394C13029.5 567.394 13053.2 594.905 13063.8 612.648C13063.8 612.648 13056.6 651.346 13041.1 688.43C13025.4 665.501 13005.2 643.23 13005.2 643.23C12993.4 672.356 12978.5 701.663 12962 728.766C12962 728.766 12992.1 763.989 12998.7 774.033C12989.8 788.914 12981.2 801.871 12971.6 815.463" fill="#C4C4C4"/>
<path d="M12872.7 815.463C12925.1 756.798 12969.8 687.79 12996.7 613.896C13020 549.792 13032.7 471.501 13012 401.862C13010.6 397.173 13009.1 392.541 13007.3 387.975C13000.7 370.944 12992.2 356.091 12982.8 344.423C12957.7 316.34 12929.3 291.396 12898.2 270.133C12902.7 275.907 12906.9 281.964 12910.6 288.267C12910.6 288.267 12948.5 316.381 12970.5 344.944C12942.3 324.837 12926.3 316.699 12924.2 315.669C12924.2 315.632 12924.1 315.596 12924 315.555C12934.7 341.982 12937.9 363.867 12937.9 363.903C12937.9 363.903 12971.4 381.379 13001.6 407.488C13005.8 426.792 13007.5 446.572 13007.2 466.375C12976.8 439.64 12941.6 418.762 12941.6 418.762C12941 441.4 12937.9 464.329 12932.9 486.618C12932.9 486.618 12966.1 507.645 12998.5 537.125C12998.5 537.125 12989.2 578.899 12974.2 611.75C12943.1 582.846 12912.9 560.349 12910.5 558.593C12910.5 558.593 12895.1 598.788 12870.1 639.129C12901.2 666.168 12930.4 694.205 12930.4 694.205C12912.5 722.051 12892.3 748.564 12870.6 773.353L12870.5 773.376L12814.9 718.005C12792.3 745.944 12767.7 772.194 12741.3 796.545C12742.5 797.951 12753.7 810.377 12758.3 815.463H12872.7Z" fill="#C4C4C4"/>
<path d="M12887 276.317C12883.4 271.399 12879.3 266.382 12874.6 261.922C12870.5 258.016 12866.5 254.491 12862.3 251.324C12816.1 216.437 12730.9 198.997 12730.9 198.997C12736 201.725 12741 204.661 12745.8 207.799C12746.3 207.903 12780.6 216.509 12811 231.403C12811 231.403 12783.3 225.111 12765.6 222.661C12773 229.243 12779.9 236.485 12786 244.297C12786 244.297 12842.5 254.604 12867.3 268.205C12867.3 268.205 12879.2 280.423 12888.9 301.854C12850.2 286.135 12806.3 277.937 12806.3 277.937C12812.1 290.98 12816.3 304.948 12818.9 319.484C12818.9 319.484 12867.1 331.28 12903.3 348.678C12906.4 365.881 12907.6 383.665 12906.9 401.658C12864.1 380.199 12821.7 366.725 12821.7 366.725C12820.8 385.276 12817.8 404.498 12812.8 424.133C12812.8 424.133 12871.2 450.219 12897.5 466.062C12891.7 489.253 12883.5 511.969 12873.8 533.84C12833.8 507.863 12791.5 484.762 12791.5 484.762C12780.8 510.29 12754.7 552.101 12754.7 552.101L12754.7 552.119C12755.4 552.573 12798.9 582.447 12832.3 608.96C12815.7 634.093 12797 658.229 12776.6 681.18C12769.6 674.466 12705.5 617.511 12705.5 617.511C12686.1 639.964 12664.5 661.835 12640.9 682.772C12640.9 682.772 12640.9 682.781 12640.9 682.786L12702.8 752.783C12702.8 752.783 12702.8 752.783 12702.8 752.792L12702.8 752.801C12662.7 785.829 12622.7 810.863 12622.7 810.863L12571.1 737.594C12571.1 737.594 12534.8 765.228 12473.5 794.231V815.463H12674.7C12899.4 645.485 12979.1 402.429 12887 276.317Z" fill="#C4C4C4"/>
<path d="M12773 250.812C12717.2 175.71 12629.9 186.44 12603.8 190.083C12575.2 194.093 12553.6 200.354 12553.6 200.354C12560 200.953 12568.7 202.096 12575 203.344C12579.6 202.255 12619.7 193.1 12648.9 196.924L12649 196.929C12627.6 199.256 12598.3 208.103 12595.3 209.037C12595.2 209.046 12595.2 209.065 12595.2 209.078L12595.3 209.114C12596.3 209.423 12604.8 211.982 12615.6 218.329C12618.7 217.48 12658.5 206.941 12696.4 206.197V206.206C12696.4 206.206 12710.4 212.417 12723.9 221.677C12674.9 221.491 12634.4 230.891 12633.3 231.149C12639.5 236.658 12645.1 242.889 12649.8 249.709C12703.5 241.67 12749.8 245.154 12749.8 245.154C12749.8 245.154 12756.1 252.835 12758.9 256.963C12762.5 262.162 12766.2 268.623 12769 274.298C12714.2 267.892 12661.8 272.474 12661.8 272.474C12665.4 281.802 12667.9 291.778 12669.2 302.267C12675.2 302.222 12721.6 302.308 12780.7 312.947C12782.6 326.493 12782.8 341.006 12781.3 356.322C12771.3 353.709 12722.8 341.592 12669.8 336.338C12668.8 349.567 12666.2 363.341 12662.4 377.464C12668.3 378.861 12733.7 394.449 12770.3 409.289C12769.6 411.608 12768.9 413.919 12768.1 416.221C12762.9 431.95 12756.3 447.742 12748.6 463.485C12719.1 448.963 12646.7 420.685 12646.7 420.685C12639.5 436.863 12630.6 453.241 12620.3 469.587C12620.3 469.587 12682.3 504.978 12712.2 524.572C12698 544.824 12682.4 564.114 12665.7 582.315C12644 562.885 12589.8 520.902 12585.7 517.735C12568.2 538.541 12546.2 560.421 12539.6 566.891L12604.7 641.447C12604.1 641.987 12603.4 642.536 12602.8 643.09C12588.7 654.754 12573.6 665.732 12560.8 674.534C12549.6 682.087 12540.5 687.94 12537.3 689.981C12536.5 688.834 12494 620.86 12487.6 610.044C12482.9 613.468 12478.2 616.815 12473.5 620.084V759.82C12481.1 756.131 12488.8 752.312 12496.4 748.251C12533.1 730.199 12568.7 707.294 12601.8 680.831C12624.9 662.491 12646.7 642.636 12667.2 621.395C12693.3 594.619 12716 566.568 12734.9 538.146C12806.6 432.295 12825.8 321.929 12773 250.812" fill="#C4C4C4"/>
<path d="M12628.3 245.15C12601.7 214.654 12557.5 204.21 12506.1 211.555C12504.7 211.764 12503.2 211.964 12501.9 212.181C12497.9 212.864 12494 213.646 12490 214.527C12482.1 216.369 12476.6 218.183 12473.5 219.413V234.792C12478.5 230.811 12483.7 227.024 12489 223.441C12499.3 221.25 12509.2 219.857 12518.8 219.227C12504 227.697 12486.8 239.188 12473.5 249.795V261.636L12473.9 261.908C12473.9 261.908 12511.6 232.093 12541.5 219.245C12548.5 219.727 12555.4 220.743 12562.2 222.285C12517.5 241.253 12484.5 264.78 12482.2 266.432C12485.5 268.409 12488.6 270.607 12491.5 273.01C12492.1 272.647 12535.5 245.531 12583.2 229.28C12589.6 232.238 12595.9 235.922 12601.3 240.091C12549.4 254.69 12499.4 280.759 12499.4 280.759C12502.2 284.042 12504.7 287.593 12506.9 291.361L12507.7 291.007C12560.9 268.251 12617.4 256.582 12617.4 256.582C12621.9 262.808 12625.6 269.625 12628.3 276.843C12628.3 276.843 12577.6 282.641 12512.3 303.565C12515.2 312.575 12516 319.353 12516 319.412C12516 319.412 12577.5 305.656 12634.2 304.132C12635 313.242 12634.7 323.467 12633.4 333.956C12599.8 332.187 12519.8 336.447 12516.7 336.692C12516.7 336.692 12516.4 348.215 12513.4 359.058C12513.4 359.058 12571.8 360.936 12625 370.854C12620.8 383.759 12615.6 396.313 12609.4 408.4C12574 397.756 12520.2 384.831 12506.1 381.583C12502.2 391.001 12497.6 400.063 12492.1 408.663C12492.1 408.663 12557.8 437.335 12583 451.363H12583.1L12583.1 451.39C12572.1 467.776 12550.4 490.714 12550.4 490.714C12544.5 486.278 12538.6 481.872 12532.6 477.494C12515.2 465.304 12489.3 447.202 12473.6 436.264L12473.5 436.174V490.51L12507.5 530.315C12496.6 539.125 12485.2 547.365 12473.5 555.004V587.424L12474.7 586.607C12490.7 575.709 12506 563.875 12520.6 551.166C12638.2 448.863 12686.4 311.853 12628.3 245.154" fill="#C4C4C4"/>
<path d="M12473.5 400.868C12503.5 358.105 12507.9 309.026 12481.5 285.068C12479 282.818 12476.3 280.89 12473.5 279.225V400.868ZM12637.5 170.969C12903.9 170.969 13120.7 388.565 13120.7 656.023C13120.7 710.269 13111.5 764.243 13093.8 815.462H13212.4V76.5369H12473.5V199.782L12474 199.573C12526.4 180.602 12581.7 170.92 12637.5 170.964V170.969ZM12164.3 312.134C12146.2 296.074 12123.2 283.612 12095.2 274.76C12067.1 265.914 12033.5 261.486 11994.1 261.486H11794.9V630.323H11994.1C12064.9 630.323 12119.8 614.998 12158.6 584.338C12197.5 553.693 12216.9 507.55 12216.9 445.909C12216.9 418.371 12212.6 393.201 12204.1 370.418C12195.6 347.625 12182.3 328.203 12164.3 312.134V312.134ZM12097.6 492.134C12093.5 504.596 12086.9 514.591 12077.7 522.126C12068.5 529.684 12056.7 535.088 12042.1 538.359C12027.5 541.643 12009.9 543.276 11989.2 543.276H11902.2V348.528H11989.2C12010.5 348.528 12028.5 350.343 12043.1 353.936C12057.6 357.556 12069.4 363.281 12078.5 371.153C12087.5 379.019 12094 389.1 12097.9 401.394C12101.8 413.698 12103.8 428.529 12103.8 445.909C12103.8 464.265 12101.7 479.671 12097.6 492.138L12097.6 492.134ZM11371.5 478.855H11573.1V406.562H11371.5V345.588H11611L11609.1 261.477H11264.3V630.323H11618.9L11620.9 547.21H11371.5L11371.5 478.855ZM10719.9 261.481L10717 348.528H10858.1V630.318H10965.8V348.523H11106.9L11104.5 261.481H10719.9ZM10444.5 630.323H10553.7V261.481H10444.5V630.323ZM10141.6 444.915L10142.6 484.262L10141.6 485.242L10113.5 456.72L9913.87 261.481H9825.35V630.323H9922.72V436.568L9921.74 396.726L9923.21 396.236L9951.25 424.264L10168.6 630.323H10238.9V261.486H10141.6V444.915ZM9528.8 469.514C9528.8 497.378 9520.93 518.12 9505.19 531.726C9489.46 545.336 9464.2 552.132 9429.46 552.132C9394.38 552.132 9368.64 545.336 9352.25 531.726C9335.85 518.116 9327.65 497.378 9327.65 469.514V261.486H9220.45V468.534C9220.45 525.574 9238.4 568.115 9274.3 596.152C9310.2 624.18 9361.91 638.194 9429.46 638.194C9497.32 638.194 9548.63 624.262 9583.39 596.397C9618.14 568.528 9635.52 525.896 9635.52 468.534V261.486H9528.8V469.514Z" fill="#C4C4C4"/>
<path d="M14918.9 551.525C14826.1 793.451 14597.1 813.5 14434.1 813.5C14342.8 813.5 14263.8 804.272 14198.4 789.648L14256.4 638.912C14411.7 657.044 14544.6 643.351 14596.5 507.791L14761.4 78.5H15100.6L14918.9 551.525ZM16312.9 524.313L16499.7 291.362L16508.4 524.313H16312.9ZM16796.6 79.2676H16486C16448.3 79.2676 16407.1 101.396 16379.5 133.205L15792.6 813.167H16079.6L16200 664.124H16513.6L16519.1 813.167H16866.4" fill="#C4C4C4"/>
<path d="M15264.9 82.1538L15198.7 247.128H15450.5L15251.7 810.789H15583L15781.8 247.128H16033.6L16099.9 82.1538H15264.9Z" fill="#C4C4C4"/>
</svg>
