<svg width="136" height="135" viewBox="0 0 136 135" fill="none" xmlns="http://www.w3.org/2000/svg">
<rect x="0.963867" y="0.109375" width="134.174" height="134.174" rx="21.7815" fill="#0271C7"/>
<path d="M48.0244 69.7421L48.0238 69.7416L38.1521 60.8421C37.5221 60.2737 37.1278 59.6024 37.112 59.0497L37.0865 47.7519C37.1007 47.2315 37.5773 46.9059 38.0159 47.0255L38.016 47.0256L42.4359 48.2304L42.437 48.2307C42.657 48.2904 42.8446 48.4545 42.9352 48.6841L42.9352 48.6842L42.9393 48.6944L46.0086 56.2459L46.2115 56.745L46.7313 56.8866L58.1008 59.9837L59.9773 60.4949L59.4325 58.6278L54.151 40.5295C54.2084 40.0615 54.6559 39.7729 55.0734 39.8868L55.0738 39.8869L62.314 41.8591C62.3141 41.8591 62.3141 41.8591 62.3141 41.8591C62.5657 41.9279 62.7724 42.1313 62.8441 42.4074L62.8755 42.5279L62.9332 42.6383L74.098 63.9811L74.3182 64.4021L74.7768 64.527L85.6245 67.4818L85.6246 67.4818C88.425 68.2443 91.0284 69.6035 93.0097 71.6402C95.3043 73.9996 95.6201 75.6459 95.3372 76.7169L95.3369 76.7182C95.0569 77.7837 93.9821 79.043 90.8417 79.9184C88.1294 80.6735 85.21 80.5282 82.409 79.7656C82.4089 79.7655 82.4089 79.7655 82.4088 79.7655L50.4148 71.0495C49.5266 70.807 48.7078 70.3592 48.0244 69.7421ZM34.2175 89.6994H101.856C102.238 89.6994 102.547 90.0083 102.547 90.3903V93.9502C102.547 94.3321 102.238 94.6411 101.856 94.6411H34.2175C33.8355 94.6411 33.5266 94.3321 33.5266 93.9502V90.3903C33.5266 90.0083 33.8355 89.6994 34.2175 89.6994Z" stroke="white" stroke-width="2.17815"/>
</svg>
