<svg width="135" height="135" viewBox="0 0 135 135" fill="none" xmlns="http://www.w3.org/2000/svg">
<rect y="0.826172" width="134.174" height="134.174" rx="21.7815" fill="#0271C7"/>
<path d="M63.9806 95.7107L63.9817 95.7122C65.4924 97.8535 68.708 97.8536 70.2189 95.7122L70.2199 95.7107C73.1196 91.5862 75.6094 88.1059 77.7417 85.1252C81.6164 79.7091 84.311 75.9425 86.1405 72.9577C87.5727 70.6212 88.5174 68.699 89.0967 66.7796C89.6787 64.8515 89.8756 62.9803 89.8756 60.7661C89.8756 48.3937 79.6592 38.3992 67.1003 38.3992C54.5414 38.3992 44.325 48.3937 44.325 60.7661C44.325 62.9803 44.5219 64.8515 45.1038 66.7796C45.6832 68.699 46.6279 70.6212 48.0601 72.9577C49.8896 75.9425 52.5842 79.7091 56.4588 85.1252C58.5912 88.1059 61.0809 91.5862 63.9806 95.7107ZM75.0471 60.7661C75.0471 65.0416 71.5088 68.5428 67.1003 68.5428C62.6917 68.5428 59.1534 65.0416 59.1534 60.7661C59.1534 56.4906 62.6917 52.9894 67.1003 52.9894C71.5088 52.9894 75.0471 56.4906 75.0471 60.7661Z" stroke="white" stroke-width="2.17815"/>
</svg>
