<svg width="135" height="135" viewBox="0 0 135 135" fill="none" xmlns="http://www.w3.org/2000/svg">
<rect width="134.174" height="134.174" rx="21.7815" fill="#0271C7"/>
<path d="M49.7427 95.5123V96.6014H50.8318H83.4484H84.5375V95.5123V44.8509C84.5375 40.887 81.3045 37.6824 77.3328 37.6824H56.9474C52.9757 37.6824 49.7427 40.887 49.7427 44.8509V95.5123ZM86.4364 95.5123V96.6014H87.5255H93.6411C97.6128 96.6014 100.846 93.3968 100.846 89.4329V57.0096C100.846 53.0457 97.6128 49.8412 93.6411 49.8412H87.5255H86.4364V50.9302V95.5123ZM46.7547 96.6014H47.8438V95.5123V50.9302V49.8412H46.7547H40.6391C36.6674 49.8412 33.4344 53.0457 33.4344 57.0096V89.4329C33.4344 93.3968 36.6674 96.6014 40.6391 96.6014H46.7547ZM60.075 47.9664H74.2052V49.8412H60.075V47.9664Z" stroke="white" stroke-width="2.17815"/>
</svg>
