<svg height="512" viewBox="0 0 58 59" width="512" xmlns="http://www.w3.org/2000/svg"><g id="047---Tokyo-Tower" fill="none"><path id="Shape" d="m28 6c.0044927.15288511.0420182.30298718.11.44l-.94 6.56c-1.0377153 5.7473192-2.4303811 11.4248536-4.17 17-3.8 7.6-8.33 18.6-16 25h7s6-9 13-9v9h4v-9c7 0 13 9 13 9h7c-7.64-6.38-12.27-17.54-16-25-1.3534151-4.2711903-2.4816348-8.6104968-3.38-13-.7536849-3.4887051-1.3310838-7.01317462-1.73-10.56.0679818-.13701282.1055073-.28711489.11-.44z" fill="#c03a2b"/><rect id="Rectangle-path" fill="#bdc3c7" height="4" rx="1" width="58" y="55"/><path id="Rectangle-path" d="m27 34h4v21h-4z" fill="#e64c3c"/><rect id="Rectangle-path" fill="#ecf0f1" height="4" rx="1" width="22" x="18" y="30"/><path id="Shape" d="m27 38v4h-10c.75-1.33 1.45-2.68 2.11-4z" fill="#e64c3c"/><path id="Shape" d="m27 34v4h-7.89c.68-1.36 1.31-2.71 1.89-4z" fill="#c03a2b"/><path id="Shape" d="m41 42h-10v-4h7.89c.66 1.32 1.36 2.67 2.11 4z" fill="#e64c3c"/><path id="Shape" d="m38.89 38h-7.89v-4h6c.58 1.29 1.21 2.63 1.89 4z" fill="#c03a2b"/><path id="Shape" d="m35 30h-12c1-3 1.78-6 2.48-9h7c.74 3 1.52 6 2.52 9z" fill="#e64c3c"/><path id="Shape" d="m31.62 17h-5.24c.29-1.38.55-2.72.79-4h3.66c.24 1.28.5 2.62.79 4z" fill="#e64c3c"/><rect id="Rectangle-path" fill="#ecf0f1" height="4" rx="1" width="12" x="23" y="17"/><path id="Shape" d="m29 7c-.5522847 0-1-.44771525-1-1v-5c0-.55228475.4477153-1 1-1s1 .44771525 1 1v5c0 .55228475-.4477153 1-1 1z" fill="#e64c3c"/><path id="Shape" d="m33 9.49v2.51c0 .5522847-.4477153 1-1 1h-6c-.5522847 0-1-.4477153-1-1v-2.51c.0038131-.30597568.1475073-.5933641.39-.78l3-2.51c.3555556-.26666667.8444444-.26666667 1.2 0l3 2.51c.2500298.18252421.4014303.47055448.41.78z" fill="#bdc3c7"/></g></svg>