<svg width="4078" height="739" viewBox="0 0 4078 739" fill="none" xmlns="http://www.w3.org/2000/svg">
<path d="M4047.47 677.567C4030.41 677.567 4016.93 691.1 4016.93 708.049C4016.93 725.007 4030.41 738.513 4047.47 738.513C4064.48 738.513 4078 725.007 4078 708.049C4078.02 704.036 4077.24 700.06 4075.72 696.349C4074.19 692.639 4071.94 689.268 4069.1 686.433C4066.26 683.597 4062.89 681.353 4059.17 679.831C4055.46 678.308 4051.48 677.537 4047.47 677.562V677.567ZM4047.47 733.849C4033.5 733.849 4021.56 722.435 4021.56 708.049C4021.56 693.645 4033.5 682.289 4047.47 682.289C4061.41 682.289 4073.3 693.645 4073.3 708.049C4073.3 722.43 4061.41 733.849 4047.47 733.849Z" fill="#C4C4C4"/>
<path d="M4062.41 699.969C4062.41 692.792 4056.6 691.158 4050.54 691.158H4036.06V724.499H4040.73V709.101H4046.39L4056.33 724.499H4061.95L4051.91 709.101C4057.84 708.929 4062.41 706.561 4062.41 699.973V699.969ZM4046.39 704.465H4040.73V695.872H4049.61C4053.24 695.872 4057.74 696.476 4057.74 699.887C4057.74 705.2 4050.44 704.469 4046.39 704.469V704.465ZM3851.87 738.926C3858.01 722.235 3863.26 705.231 3867.61 687.987C3876.28 651.967 3880.65 615.047 3880.63 577.999C3880.63 556.327 3879.13 534.886 3876.24 513.786C3874.11 544.531 3868.75 571.475 3868.75 571.475C3870.01 575.535 3872.25 582.204 3873.28 586.319L3873.28 586.337C3870.03 617.527 3864.1 648.379 3855.57 678.555C3851.54 663.661 3846.11 649.325 3845.77 648.4L3845.75 648.35C3834.87 677.34 3818.61 711.474 3803.84 738.926H3851.87Z" fill="#C4C4C4"/>
<path d="M3751.17 738.926H3778.94C3857.98 622.173 3861.95 518.699 3861.95 498.873C3861.95 461.423 3855.66 427.012 3845.14 399.764C3845.14 399.764 3828.74 357.418 3803.2 319.736C3805.99 328.156 3811.34 345.228 3814.31 360.476C3814.5 361.492 3814.66 362.39 3814.8 363.22C3819.83 371.609 3842.52 411.618 3845.56 455.616L3845.57 455.747C3845.57 455.747 3829.54 433.29 3817.64 419.099C3817.22 443.28 3814.08 467.484 3809.02 490.857C3809.02 490.857 3832.77 518.368 3843.4 536.111C3843.4 536.111 3836.17 574.809 3820.68 611.893C3804.91 588.964 3784.77 566.693 3784.77 566.693C3772.99 595.819 3758.07 625.126 3741.5 652.229C3741.5 652.229 3771.6 687.452 3778.21 697.496C3769.36 712.377 3760.74 725.334 3751.17 738.926Z" fill="#C4C4C4"/>
<path d="M3652.24 738.926C3704.69 680.261 3749.39 611.253 3776.24 537.359C3799.53 473.254 3812.21 394.964 3791.59 325.325C3790.19 320.636 3788.61 316.003 3786.85 311.438C3780.25 294.407 3771.7 279.554 3762.39 267.885C3737.28 239.803 3708.87 214.859 3677.78 193.596C3682.29 199.37 3686.42 205.427 3690.15 211.73C3690.15 211.73 3728.05 239.844 3750.06 268.407C3721.83 248.3 3705.85 240.161 3703.78 239.132C3703.7 239.095 3703.61 239.059 3703.54 239.018C3714.26 265.445 3717.49 287.33 3717.49 287.366C3717.49 287.366 3750.98 304.842 3781.13 330.951C3785.31 350.254 3787.03 370.035 3786.75 389.838C3756.36 363.103 3721.19 342.224 3721.19 342.224C3720.55 364.863 3717.42 387.791 3712.44 410.08C3712.44 410.08 3745.65 431.108 3778.01 460.588C3778.01 460.588 3768.72 502.362 3753.73 535.213C3722.68 506.309 3692.4 483.811 3690.02 482.056C3690.02 482.056 3674.6 522.251 3649.64 562.592C3680.72 589.631 3709.94 617.668 3709.94 617.668C3692.09 645.514 3671.89 672.027 3650.11 696.816L3650.1 696.838L3594.49 641.468C3571.88 669.407 3547.26 695.657 3520.82 720.008C3522.07 721.414 3533.28 733.84 3537.87 738.926H3652.24Z" fill="#C4C4C4"/>
<path d="M3666.51 199.78C3662.91 194.862 3658.84 189.844 3654.17 185.385C3650.08 181.479 3646.09 177.954 3641.89 174.787C3595.61 139.9 3510.47 122.46 3510.47 122.46C3515.56 125.187 3520.54 128.124 3525.39 131.262C3525.8 131.366 3560.14 139.972 3590.59 154.866C3590.59 154.866 3562.89 148.574 3545.12 146.124C3552.57 152.706 3559.41 159.948 3565.56 167.76C3565.56 167.76 3622.06 178.067 3646.87 191.668C3646.87 191.668 3658.74 203.886 3668.45 225.317C3629.72 209.597 3585.87 201.4 3585.87 201.4C3591.69 214.443 3595.86 228.411 3598.41 242.947C3598.41 242.947 3646.63 254.742 3682.86 272.141C3685.99 289.344 3687.13 307.128 3686.47 325.121C3643.68 303.662 3601.21 290.188 3601.21 290.188C3600.35 308.739 3597.37 327.961 3592.36 347.596C3592.36 347.596 3650.78 373.682 3677.03 389.524C3671.24 412.716 3663.1 435.432 3653.32 457.303C3613.33 431.326 3571.01 408.225 3571.01 408.225C3560.38 433.753 3534.23 475.564 3534.23 475.564L3534.26 475.582C3534.92 476.035 3578.44 505.91 3611.82 532.423C3595.24 557.556 3576.54 581.692 3556.19 604.643C3549.16 597.929 3485 540.974 3485 540.974C3465.64 563.427 3444.08 585.298 3420.47 606.235C3420.47 606.235 3420.47 606.244 3420.49 606.249L3482.33 676.246C3482.34 676.246 3482.35 676.246 3482.35 676.255L3482.35 676.264C3442.23 709.292 3402.24 734.326 3402.24 734.326L3350.63 661.057C3350.63 661.057 3314.31 688.69 3253.02 717.694V738.926H3454.29C3678.95 568.948 3758.68 325.892 3666.51 199.78Z" fill="#C4C4C4"/>
<path d="M3552.56 174.274C3496.75 99.1733 3409.42 109.903 3383.37 113.546C3354.76 117.556 3333.14 123.817 3333.14 123.817C3339.53 124.416 3348.23 125.559 3354.51 126.807C3359.14 125.718 3399.3 116.563 3428.48 120.387L3428.57 120.392C3407.12 122.719 3377.86 131.566 3374.8 132.5C3374.77 132.509 3374.76 132.527 3374.73 132.541L3374.82 132.577C3375.87 132.886 3384.31 135.445 3395.13 141.791C3398.29 140.943 3438.02 130.404 3475.91 129.66V129.669C3475.91 129.669 3489.91 135.88 3503.4 145.14C3454.44 144.953 3413.91 154.354 3412.82 154.612C3419.05 160.121 3424.61 166.351 3429.37 173.172C3483.04 165.133 3529.35 168.617 3529.35 168.617C3529.35 168.617 3535.65 176.298 3538.48 180.426C3542.06 185.625 3545.71 192.086 3548.55 197.761C3493.77 191.355 3441.38 195.937 3441.34 195.937C3444.96 205.265 3447.4 215.241 3448.74 225.73C3454.8 225.685 3501.19 225.771 3560.28 236.41C3562.17 249.956 3562.36 264.469 3560.87 279.785C3550.83 277.172 3502.31 265.055 3449.38 259.801C3448.31 273.03 3445.79 286.804 3441.92 300.927C3447.85 302.324 3513.25 317.912 3549.88 332.752C3549.17 335.071 3548.43 337.381 3547.66 339.684C3542.42 355.413 3535.86 371.205 3528.1 386.948C3498.6 372.426 3426.27 344.148 3426.27 344.148C3419.04 360.326 3410.2 376.704 3399.86 393.049C3399.86 393.049 3461.88 428.441 3491.75 448.035C3477.52 468.287 3461.98 487.577 3445.21 505.778C3423.55 486.348 3369.37 444.365 3365.27 441.198C3347.8 462.003 3325.79 483.884 3319.2 490.353L3384.22 564.91C3383.62 565.45 3383 565.999 3382.36 566.552C3368.29 578.216 3353.13 589.195 3340.32 597.997C3329.2 605.55 3320.02 611.403 3316.85 613.444C3316.1 612.296 3273.52 544.322 3267.13 533.507C3262.48 536.931 3257.78 540.278 3253.02 543.547V683.283C3260.67 679.594 3268.34 675.774 3275.98 671.714C3312.64 653.662 3348.22 630.756 3381.33 604.294C3404.43 585.954 3426.3 566.099 3446.77 544.858C3472.88 518.082 3495.55 490.031 3514.47 461.609C3586.19 355.758 3605.4 245.392 3552.56 174.274Z" fill="#C4C4C4"/>
<path d="M3407.81 168.613C3381.23 138.117 3337.01 127.673 3285.62 135.018C3284.22 135.227 3282.77 135.426 3281.45 135.644C3277.47 136.327 3273.51 137.109 3269.57 137.99C3261.63 139.832 3256.19 141.646 3253.02 142.876V158.255C3258.05 154.274 3263.24 150.487 3268.57 146.904C3278.8 144.713 3288.75 143.32 3298.34 142.69C3283.51 151.16 3266.38 162.651 3253.02 173.258V185.099L3253.48 185.371C3253.48 185.371 3291.14 155.556 3321.07 142.708C3328.04 143.19 3334.96 144.206 3341.77 145.747C3297.06 164.716 3264.05 188.243 3261.76 189.894C3265.01 191.872 3268.13 194.07 3271.08 196.473C3271.66 196.11 3315.01 168.994 3362.73 152.743C3369.19 155.701 3375.45 159.385 3380.86 163.554C3328.91 178.153 3278.97 204.221 3278.97 204.221C3281.79 207.505 3284.28 211.056 3286.41 214.824L3287.3 214.47C3340.47 191.714 3396.97 180.045 3396.97 180.045C3401.49 186.271 3405.14 193.088 3407.81 200.306C3407.81 200.306 3357.1 206.104 3291.88 227.028C3294.76 236.038 3295.55 242.815 3295.55 242.874C3295.55 242.874 3357.04 229.119 3413.75 227.595C3414.54 236.704 3414.26 246.93 3412.95 257.419C3379.37 255.65 3299.37 259.91 3296.23 260.155C3296.23 260.155 3295.94 271.678 3292.94 282.521C3292.94 282.521 3351.39 284.399 3404.56 294.317C3400.36 307.221 3395.15 319.776 3388.98 331.863C3353.55 321.219 3299.77 308.294 3285.62 305.046C3281.77 314.464 3277.1 323.525 3271.67 332.126C3271.67 332.126 3337.37 360.798 3362.59 374.825H3362.64L3362.63 374.853C3351.69 391.239 3329.99 414.177 3329.99 414.177C3324.06 409.741 3318.11 405.334 3312.14 400.957C3294.72 388.767 3268.86 370.665 3253.15 359.727L3253.02 359.636V413.973L3287.09 453.778C3276.17 462.588 3264.8 470.828 3253.02 478.467V510.887L3254.27 510.07C3270.26 499.172 3285.6 487.338 3300.2 474.629C3417.77 372.326 3465.95 235.316 3407.81 168.617" fill="#C4C4C4"/>
<path d="M3253.02 324.331C3283.05 281.568 3287.4 232.489 3261.03 208.531C3258.55 206.281 3255.86 204.353 3253.02 202.688V324.331ZM3417.01 94.4319C3683.46 94.4319 3900.24 312.027 3900.24 579.486C3900.24 633.732 3891.06 687.706 3873.32 738.925H3991.93V-0.000244141H3253.01V123.245L3253.58 123.036C3305.98 104.065 3361.28 94.3833 3417.01 94.4274V94.4319ZM2943.83 235.597C2925.79 219.537 2902.76 207.075 2874.74 198.223C2846.7 189.377 2813.02 184.949 2773.67 184.949H2574.49V553.786H2773.67C2844.48 553.786 2899.33 538.461 2938.17 507.801C2977.03 477.156 2996.46 431.012 2996.46 369.372C2996.46 341.834 2992.19 316.664 2983.66 293.88C2975.13 271.088 2961.86 251.666 2943.83 235.597ZM2877.19 415.597C2873.09 428.059 2866.46 438.053 2857.27 445.589C2848.09 453.147 2836.2 458.55 2821.61 461.821C2807.03 465.106 2789.4 466.739 2768.76 466.739H2681.71V271.991H2768.75C2790.06 271.991 2808 273.805 2822.6 277.398C2837.18 281.019 2848.99 286.744 2858 294.615C2867.02 302.482 2873.5 312.563 2877.44 324.857C2881.37 337.161 2883.33 351.992 2883.33 369.372C2883.33 387.727 2881.28 403.134 2877.19 415.601L2877.19 415.597ZM2151.07 402.318H2352.7V330.025H2151.07V269.051H2390.56L2388.6 184.94H2043.85V553.786H2398.43L2400.4 470.673H2151.06L2151.07 402.318ZM1499.45 184.944L1496.51 271.991H1637.65V553.781H1745.35V271.986H1886.49L1884.04 184.944H1499.45ZM1224.06 553.786H1333.23V184.944H1224.06V553.786ZM921.112 368.378L922.101 407.725L921.112 408.705L893.075 380.183L693.422 184.944H604.897V553.786H702.269V360.031L701.293 320.189L702.759 319.699L730.796 347.727L948.16 553.786H1018.49V184.949H921.112V368.378ZM308.348 392.976C308.348 420.841 300.477 441.583 284.744 455.189C269.01 468.799 243.754 475.595 209.007 475.595C173.925 475.595 148.188 468.799 131.797 455.189C115.396 441.579 107.203 420.841 107.203 392.976V184.949H0V391.997C0 449.037 17.9473 491.578 53.8511 519.615C89.7503 547.643 141.465 561.657 209.007 561.657C276.868 561.657 328.183 547.725 362.939 519.86C397.686 491.991 415.071 449.359 415.071 391.997V184.949H308.348V392.976Z" fill="#C4C4C4"/>
</svg>
