<svg width="1464" height="232" viewBox="0 0 1464 232" fill="none" xmlns="http://www.w3.org/2000/svg">
<path d="M286.077 25.5374L229.235 229H181.139L142.953 84.1276L103.019 229L55.2137 229.291L0.412862 25.5374H44.1369L79.9907 183.527L121.383 25.5374H166.856L205.916 182.652L242.061 25.5374H286.077ZM333.419 48.2739C326.229 48.2739 320.205 46.0391 315.347 41.5695C310.683 36.9056 308.351 31.1729 308.351 24.3714C308.351 17.5699 310.683 11.9343 315.347 7.46476C320.205 2.80087 326.229 0.468917 333.419 0.468917C340.61 0.468917 346.537 2.80087 351.2 7.46476C356.059 11.9343 358.488 17.5699 358.488 24.3714C358.488 31.1729 356.059 36.9056 351.2 41.5695C346.537 46.0391 340.61 48.2739 333.419 48.2739ZM353.532 67.5125V229H312.723V67.5125H353.532ZM434.661 91.1235C439.908 83.3503 447.098 77.0346 456.232 72.1764C465.559 67.3181 476.15 64.889 488.004 64.889C501.802 64.889 514.239 68.2898 525.316 75.0913C536.587 81.8928 545.429 91.6093 551.842 104.241C558.449 116.678 561.752 131.155 561.752 147.673C561.752 164.191 558.449 178.863 551.842 191.689C545.429 204.32 536.587 214.134 525.316 221.13C514.239 228.126 501.802 231.623 488.004 231.623C475.956 231.623 465.365 229.291 456.232 224.628C447.292 219.769 440.102 213.551 434.661 205.972V229H393.852V13.2946H434.661V91.1235ZM520.069 147.673C520.069 137.957 518.028 129.601 513.947 122.605C510.061 115.415 504.814 109.973 498.207 106.281C491.794 102.589 484.798 100.743 477.219 100.743C469.835 100.743 462.839 102.686 456.232 106.573C449.819 110.265 444.572 115.706 440.491 122.896C436.604 130.086 434.661 138.54 434.661 148.256C434.661 157.973 436.604 166.426 440.491 173.616C444.572 180.806 449.819 186.345 456.232 190.231C462.839 193.924 469.835 195.77 477.219 195.77C484.798 195.77 491.794 193.826 498.207 189.94C504.814 186.053 510.061 180.515 513.947 173.325C518.028 166.135 520.069 157.584 520.069 147.673ZM743.858 67.5125V229H702.758V208.595C697.511 215.591 690.612 221.13 682.062 225.211C673.706 229.097 664.572 231.04 654.661 231.04C642.03 231.04 630.856 228.417 621.14 223.17C611.423 217.729 603.747 209.859 598.112 199.559C592.67 189.065 589.95 176.628 589.95 162.248V67.5125H630.759V156.418C630.759 169.244 633.965 179.155 640.378 186.15C646.791 192.952 655.536 196.353 666.613 196.353C677.884 196.353 686.726 192.952 693.139 186.15C699.551 179.155 702.758 169.244 702.758 156.418V67.5125H743.858Z" fill="#056EBB"/>
<path d="M845.92 231.623C832.706 231.623 820.852 229.291 810.358 224.628C799.864 219.769 791.508 213.259 785.289 205.098C779.265 196.936 775.961 187.899 775.379 177.989H816.479C817.256 184.207 820.269 189.357 825.515 193.438C830.957 197.519 837.661 199.559 845.628 199.559C853.402 199.559 859.426 198.005 863.701 194.895C868.171 191.786 870.405 187.802 870.405 182.944C870.405 177.697 867.685 173.811 862.244 171.284C856.997 168.564 848.543 165.649 836.884 162.539C824.835 159.624 814.924 156.612 807.151 153.503C799.572 150.394 792.965 145.633 787.33 139.22C781.889 132.807 779.168 124.159 779.168 113.277C779.168 104.338 781.694 96.176 786.747 88.7915C791.994 81.407 799.378 75.5771 808.9 71.3019C818.617 67.0267 829.985 64.889 843.005 64.889C862.244 64.889 877.596 69.7473 889.061 79.4637C900.526 88.9858 906.842 101.909 908.008 118.232H868.948C868.365 111.82 865.644 106.767 860.786 103.075C856.122 99.1881 849.807 97.2448 841.839 97.2448C834.455 97.2448 828.722 98.6051 824.641 101.326C820.754 104.046 818.811 107.836 818.811 112.694C818.811 118.135 821.532 122.313 826.973 125.228C832.414 127.949 840.867 130.767 852.333 133.682C863.993 136.596 873.612 139.609 881.191 142.718C888.77 145.827 895.28 150.685 900.721 157.293C906.356 163.705 909.271 172.256 909.466 182.944C909.466 192.272 906.842 200.628 901.595 208.012C896.543 215.397 889.158 221.227 879.442 225.502C869.92 229.583 858.746 231.623 845.92 231.623ZM990.478 101.034V179.155C990.478 184.596 991.741 188.58 994.268 191.106C996.988 193.438 1001.46 194.604 1007.68 194.604H1026.62V229H1000.97C966.576 229 949.377 212.288 949.377 178.863V101.034H930.139V67.5125H949.377V27.5778H990.478V67.5125H1026.62V101.034H990.478ZM1096.78 92.5809C1102.03 84.0305 1108.83 77.3261 1117.19 72.4679C1125.74 67.6096 1135.46 65.1805 1146.34 65.1805V108.03H1135.55C1122.73 108.03 1113.01 111.042 1106.4 117.066C1099.99 123.091 1096.78 133.584 1096.78 148.548V229H1055.98V67.5125H1096.78V92.5809ZM1323.94 144.758C1323.94 150.588 1323.56 155.835 1322.78 160.499H1204.72C1205.7 172.159 1209.78 181.292 1216.97 187.899C1224.16 194.507 1233 197.81 1243.49 197.81C1258.65 197.81 1269.44 191.3 1275.85 178.28H1319.86C1315.2 193.826 1306.26 206.652 1293.05 216.757C1279.83 226.668 1263.61 231.623 1244.37 231.623C1228.82 231.623 1214.83 228.223 1202.39 221.421C1190.15 214.425 1180.53 204.612 1173.53 191.98C1166.73 179.349 1163.33 164.774 1163.33 148.256C1163.33 131.544 1166.73 116.872 1173.53 104.241C1180.34 91.6093 1189.86 81.8928 1202.1 75.0913C1214.34 68.2898 1228.43 64.889 1244.37 64.889C1259.72 64.889 1273.42 68.1926 1285.47 74.7998C1297.71 81.407 1307.14 90.832 1313.74 103.075C1320.54 115.123 1323.94 129.018 1323.94 144.758ZM1281.68 133.099C1281.48 122.605 1277.69 114.249 1270.31 108.03C1262.93 101.617 1253.89 98.4108 1243.2 98.4108C1233.1 98.4108 1224.55 101.52 1217.55 107.739C1210.75 113.763 1206.57 122.216 1205.02 133.099H1281.68ZM1391.04 195.478H1463.04V229H1344.7V196.061L1415.24 101.034H1344.99V67.5125H1462.17V100.451L1391.04 195.478Z" fill="black"/>
</svg>
